# xmcd
#
# Track frame offsets:
# 150
# 15296
# 27448
# 41586
# 55481
# 68145
# 83763
# 96633
# 113035
# 126015
# 139632
# 142428
#
# Disc length: 2128 seconds
#
#
# Revision: 0
# Processed by: cddbd v1.5.1PL2 Copyright (c) Steve Scherf et al.
# Submitted via: FreeRIP 2.90 
#
DISCID=aa084e0c
DTITLE=Unwise - Mesquin
DYEAR=1900
DGENRE=A Cappella
TTITLE0=Le Mesquin
TTITLE1=Muscled Guys, Sexy Sluts
TTITLE2=Mystery Of Life
TTITLE3=Egyptian Spy
TTITLE4=Tired
TTITLE5=1984
TTITLE6=Umbrella
TTITLE7=Perfect Control
TTITLE8=Money Race
TTITLE9=StankyLooney
TTITLE10=Peel A Cabbage
TTITLE11=A Vulgar Way To Order
EXTD=
EXTT0=
EXTT1=
EXTT2=
EXTT3=
EXTT4=
EXTT5=
EXTT6=
EXTT7=
EXTT8=
EXTT9=
EXTT10=
EXTT11=
PLAYORDER=
